<?xml version="1.0" standalone="no"?>
<!DOCTYPE svg PUBLIC "-//W3C//DTD SVG 20010904//EN"
 "http://www.w3.org/TR/2001/REC-SVG-20010904/DTD/svg10.dtd">
<svg version="1.0" xmlns="http://www.w3.org/2000/svg"
 width="1280.000000pt" height="1136.000000pt" viewBox="0 0 1280.000000 1136.000000"
 preserveAspectRatio="xMidYMid meet">
<metadata>
Created by potrace 1.15, written by Peter Selinger 2001-2017
</metadata>
<g transform="translate(0.000000,1136.000000) scale(0.100000,-0.100000)"
fill="#000000" stroke="none">
<path d="M6196 11349 c-347 -45 -688 -258 -906 -567 -52 -74 -2330 -3971
-4546 -7775 -628 -1077 -655 -1128 -711 -1335 -22 -84 -26 -118 -27 -252 -1
-168 7 -218 56 -370 177 -545 618 -954 1118 -1035 85 -13 664 -15 5270 -15
3695 0 5201 3 5265 11 124 15 261 52 381 103 525 222 801 775 670 1346 -38
167 -80 267 -198 473 -61 105 -413 716 -783 1357 -2842 4925 -4136 7152 -4288
7380 -249 372 -586 612 -946 674 -101 17 -243 19 -355 5z"/>
</g>
</svg>
