<svg id="Layer_1" data-name="Layer 1" xmlns="http://www.w3.org/2000/svg" xmlns:xlink="http://www.w3.org/1999/xlink" viewBox="0 0 885.11 779.39"><defs><style>.cls-1,.cls-11,.cls-13,.cls-15,.cls-17,.cls-18,.cls-20,.cls-22,.cls-24,.cls-26,.cls-28,.cls-30,.cls-32,.cls-33,.cls-34,.cls-35,.cls-47,.cls-48,.cls-5,.cls-7,.cls-9{fill:none;}.cls-2{fill:#f1f3f4;}.cls-3{fill:#fff8ce;}.cls-4{clip-path:url(#clip-path);}.cls-5{stroke:#fff8ce;}.cls-6{fill:#feed74;}.cls-7{stroke:#feed74;}.cls-8{fill:#80caa7;}.cls-9{stroke:#80caa7;}.cls-10{fill:#65b8e2;}.cls-11{stroke:#65b8e2;}.cls-12{fill:#98daf0;}.cls-13{stroke:#98daf0;}.cls-14{fill:#8ccb90;}.cls-15{stroke:#8ccb90;}.cls-16{fill:#67c8c9;}.cls-17{stroke:#67c8c9;}.cls-18{stroke:#e5e6e5;}.cls-19{fill:#d7eacc;}.cls-20{stroke:#d7eacc;}.cls-21{fill:#ef9498;}.cls-22{stroke:#ef9498;}.cls-23{fill:#f37579;}.cls-24{stroke:#f37579;}.cls-25{fill:#f7b382;}.cls-26{stroke:#f7b382;}.cls-27{fill:#e2759a;}.cls-28{stroke:#e2759a;}.cls-29{fill:#d9e691;}.cls-30{stroke:#d9e691;}.cls-31{fill:#eb92be;}.cls-32{stroke:#eb92be;}.cls-33{stroke:#e2e3e4;}.cls-34{stroke:#d8dadc;}.cls-35{stroke:#231f20;}.cls-36{fill:#b4e3f7;}.cls-37{fill:#ddddde;}.cls-38{fill:#e8d4c0;}.cls-39{fill:#fcfcea;}.cls-40{fill:#b5dcef;}.cls-41{fill:#e1beda;}.cls-42{fill:#bfe2d1;}.cls-43{fill:#dfe5f1;}.cls-44{fill:#e0efd8;}.cls-45{fill:#dfe5ee;}.cls-46{fill:#dddfe1;}.cls-47{stroke:#000;}.cls-48{stroke:#fbf1bd;}</style><clipPath id="clip-path" transform="translate(0.5 6)"><rect class="cls-1" width="875" height="770"/></clipPath></defs><polygon class="cls-2" points="730.28 320.31 743.53 327.53 753.28 326.98 753.28 318.62 730.28 320.31"/><polygon class="cls-2" points="730.93 301.73 730.93 320.77 772.14 331.64 773.14 305.11 730.93 301.73"/><polygon class="cls-2" points="713.86 289.87 730.28 322.57 734.94 304.64 723.92 287.64 713.86 289.87"/><polygon class="cls-2" points="702.5 279.08 713.92 290.5 724.83 287.64 727.5 279.08 702.5 279.08"/><polygon class="cls-2" points="723.5 280.5 723.5 286.89 786.18 275 785.4 267.53 723.5 280.5"/><polygon class="cls-2" points="505.89 287.15 494.18 307.83 505.27 301.03 512 289.87 505.89 287.15"/><polygon class="cls-2" points="785.4 249.06 785.9 275 810.2 270.37 808.96 255.94 785.4 249.06"/><polygon class="cls-2" points="743.53 222.5 742.43 229 808.96 272.34 808.96 254.53 743.53 222.5"/><polygon class="cls-2" points="690.99 222 690.99 231.68 747 231.87 744.5 222 690.99 222"/><polygon class="cls-2" points="505.89 287.15 512 290.64 712.88 289.87 695.95 270.37 505.89 287.15"/><polygon class="cls-2" points="497.5 301.54 469.84 479.5 496.75 481.33 505.27 300.29 497.5 301.54"/><rect class="cls-2" x="437.5" y="505" width="34" height="8"/><polygon class="cls-2" points="425.44 304.14 424.44 311.78 497 314.71 499.74 306.56 425.44 304.14"/><polygon class="cls-2" points="295.5 193.02 260.5 232.84 266.07 241.92 295.5 209.34 295.5 193.02"/><polygon class="cls-2" points="233.63 232.84 236.71 245.19 266.07 242.13 262.04 230.27 233.63 232.84"/><polygon class="cls-2" points="234.5 232.84 209.67 258.36 220.5 261.5 238.5 243.94 234.5 232.84"/><polygon class="cls-2" points="209.67 258.36 175.5 332.02 200.39 312 221.65 259.83 209.67 258.36"/><polygon class="cls-2" points="151.49 187 150.99 257.49 162.49 266.25 162.49 187 151.49 187"/><polygon class="cls-2" points="150.08 258.36 160.5 299 172.21 291.48 162.97 258.01 150.08 258.36"/><polygon class="cls-2" points="158.99 297.53 176.99 340.98 184.5 331.04 172.21 289.5 158.99 297.53"/><polygon class="cls-2" points="187.5 315 141.59 423.94 153.5 430.9 200.39 309.81 187.5 315"/><polygon class="cls-2" points="141.59 421.88 137.5 481.7 149 481.7 154.03 423.94 141.59 421.88"/><polygon class="cls-2" points="208.5 335.41 211.54 347 238 331.27 233.79 322.81 208.5 335.41"/><polygon class="cls-2" points="190.04 334.47 185.97 347.5 211.54 347.32 211.54 334.91 190.04 334.47"/><rect class="cls-2" x="233.56" y="322.4" width="33.96" height="11.07"/><polygon class="cls-2" points="266.02 322.81 265.96 333.47 410.83 352.39 413.71 339.84 266.02 322.81"/><polygon class="cls-2" points="418.44 249 401.5 479.5 414.27 477.79 432.21 249.82 418.44 249"/><rect class="cls-2" x="835.82" y="480" width="39.68" height="28"/><polygon class="cls-3" points="824.76 755 817.22 776 834.8 776 842.04 753.21 824.76 755"/><g class="cls-4"><polygon class="cls-5" points="824.76 755 816.5 778 834 778.49 842.04 753.21 824.76 755"/></g><polygon class="cls-3" points="828.65 732.5 823.98 756 841.54 754.5 846.5 732 828.65 732.5"/><polygon class="cls-5" points="828.65 732.5 823.98 756 841.54 754.5 846.5 732 828.65 732.5"/><polygon class="cls-3" points="835.6 703.43 828.15 732.93 847.47 732.43 852.99 697 835.6 703.43"/><polygon class="cls-5" points="835.6 703.43 828.15 732.93 847.47 732.43 852.99 697 835.6 703.43"/><polygon class="cls-3" points="838.53 650.97 835.59 703.1 852.73 698 854.99 650.43 838.53 650.97"/><polygon class="cls-5" points="838.53 650.97 835.59 703.1 852.73 698 854.99 650.43 838.53 650.97"/><polygon class="cls-3" points="838.03 505.5 838.03 653.5 855.03 653.5 857 505 838.03 505.5"/><polygon class="cls-5" points="838.03 505.5 838.03 653.5 855.03 653.5 857 505 838.03 505.5"/><polygon class="cls-3" points="838.53 412.5 837.53 507.82 856.49 508.25 854.51 412.5 838.53 412.5"/><polygon class="cls-5" points="838.53 412.5 837.53 507.82 856.49 508.25 854.51 412.5 838.53 412.5"/><polygon class="cls-3" points="835.24 308.07 837.52 413.55 854.5 413.04 851.77 307.57 835.24 308.07"/><polygon class="cls-5" points="835.24 308.07 837.52 413.55 854.5 413.04 851.77 307.57 835.24 308.07"/><polygon class="cls-3" points="831.02 226.5 834.74 308.01 851.26 308.46 849.02 226 831.02 226.5"/><polygon class="cls-5" points="831.02 226.5 834.74 308.01 851.26 308.46 849.02 226 831.02 226.5"/><polygon class="cls-3" points="827.53 142.51 830.5 227.52 848.52 227 844.5 142.01 827.53 142.51"/><polygon class="cls-5" points="827.53 142.51 830.5 227.52 848.52 227 844.5 142.01 827.53 142.51"/><polygon class="cls-3" points="808.89 743 796.86 776 814.14 776 825.48 740.74 808.89 743"/><g class="cls-4"><polygon class="cls-5" points="808.89 743 796.5 777 813.5 778 825.48 740.74 808.89 743"/></g><polygon class="cls-3" points="813.9 707.5 809.5 742 825.48 742 831.83 707.5 813.9 707.5"/><polygon class="cls-5" points="813.9 707.5 809.5 742 825.48 742 831.83 707.5 813.9 707.5"/><polygon class="cls-3" points="819 651.48 813.95 708.26 832.33 707 835.59 651.47 819 651.48"/><polygon class="cls-5" points="819 651.48 813.95 708.26 832.33 707 835.59 651.47 819 651.48"/><polygon class="cls-3" points="818.25 546.5 819 650.96 835.47 650.48 835.47 546.5 818.25 546.5"/><polygon class="cls-5" points="818.25 546.5 819 650.96 835.47 650.48 835.47 546.5 818.25 546.5"/><rect class="cls-3" x="817.5" y="455.52" width="17.96" height="92.27"/><rect class="cls-5" x="817.5" y="455.52" width="17.96" height="92.27"/><polygon class="cls-3" points="812.5 350.5 817 456.5 834.74 455.02 830.52 350 812.5 350.5"/><polygon class="cls-5" points="812.5 350.5 817 456.5 834.74 455.02 830.52 350 812.5 350.5"/><polygon class="cls-3" points="810.72 256.45 814.01 351.5 830.02 351.5 827.03 256.5 810.72 256.45"/><polygon class="cls-5" points="810.72 256.45 814.01 351.5 830.02 351.5 827.03 256.5 810.72 256.45"/><polygon class="cls-3" points="806.44 172.42 809.71 255.8 826.5 255.95 821.89 171.81 806.44 172.42"/><polygon class="cls-5" points="806.44 172.42 809.71 255.8 826.5 255.95 821.89 171.81 806.44 172.42"/><polygon class="cls-3" points="803.5 97.5 806 173.54 821.5 175.14 817.5 97 803.5 97.5"/><polygon class="cls-5" points="803.5 97.5 806 173.54 821.5 175.14 817.5 97 803.5 97.5"/><polygon class="cls-3" points="826 53.5 828 144 844 144 843.5 53.5 826 53.5"/><polygon class="cls-5" points="826 53.5 828 144 844 144 843.5 53.5 826 53.5"/><polygon class="cls-3" points="801 30.5 803 98.95 818 98.45 818 30.5 801 30.5"/><polygon class="cls-5" points="801 30.5 803 98.95 818 98.45 818 30.5 801 30.5"/><rect class="cls-3" x="825" y="6" width="17.5" height="49.47"/><g class="cls-4"><rect class="cls-5" x="825" y="0.5" width="17.5" height="54.97"/></g><rect class="cls-3" x="801" y="6" width="17" height="25.58"/><g class="cls-4"><rect class="cls-5" x="801" y="1.5" width="17" height="30.08"/></g><rect class="cls-3" x="685.37" y="171.27" width="3.33" height="7.73"/><rect class="cls-5" x="685.37" y="171.27" width="3.33" height="7.73"/><rect class="cls-3" x="680.48" y="155.85" width="5.81" height="23.65"/><rect class="cls-5" x="680.48" y="155.85" width="5.81" height="23.65"/><rect class="cls-3" x="670" y="155.85" width="13.37" height="44.54"/><rect class="cls-5" x="670" y="155.85" width="13.37" height="44.54"/><polygon class="cls-6" points="662.79 168.5 661.56 173 668.5 172.5 668.5 168.5 662.79 168.5"/><polygon class="cls-7" points="662.79 168.5 661.56 173 668.5 172.5 668.5 168.5 662.79 168.5"/><polygon class="cls-6" points="610.06 187.57 610.06 189.95 615.49 189.95 616.58 186.57 610.06 187.57"/><polygon class="cls-7" points="610.06 187.57 610.06 189.95 615.49 189.95 616.58 186.57 610.06 187.57"/><polygon class="cls-6" points="615.49 171.5 615.99 200.65 668.5 200.65 668.5 172 615.49 171.5"/><polygon class="cls-7" points="615.49 171.5 615.99 200.65 668.5 200.65 668.5 172 615.49 171.5"/><rect class="cls-6" x="662.79" y="155.85" width="5.83" height="13.15"/><rect class="cls-7" x="662.79" y="155.85" width="5.83" height="13.15"/><rect class="cls-6" x="649.99" y="153.5" width="13.76" height="15"/><rect class="cls-7" x="649.99" y="153.5" width="13.76" height="15"/><rect class="cls-8" x="536" y="199.54" width="2.5" height="3.46"/><rect class="cls-9" x="536" y="199.54" width="2.5" height="3.46"/><rect class="cls-8" x="511" y="200.04" width="15" height="19.96"/><rect class="cls-9" x="511" y="200.04" width="15" height="19.96"/><rect class="cls-8" x="511.5" y="187.07" width="24.54" height="16.18"/><rect class="cls-9" x="511.5" y="187.07" width="24.54" height="16.18"/><polygon class="cls-10" points="452 196 452.02 205 468.02 206 468.41 196 452 196"/><polygon class="cls-11" points="452 196 452.02 205 468.02 206 468.41 196 452 196"/><rect class="cls-10" x="439" y="184" width="28.52" height="14.54"/><rect class="cls-11" x="439" y="184" width="28.52" height="14.54"/><rect class="cls-10" x="560.25" y="299.9" width="7.25" height="2.27"/><rect class="cls-11" x="560.25" y="299.9" width="7.25" height="2.27"/><polygon class="cls-10" points="567.23 295.85 567.16 300.58 576.21 309.23 577.37 300.58 567.23 295.85"/><polygon class="cls-11" points="567.23 295.85 567.16 300.58 576.21 309.23 577.37 300.58 567.23 295.85"/><polygon class="cls-10" points="545.21 295.98 540.21 302.23 551.72 304.14 553.58 300.12 545.21 295.98"/><polygon class="cls-11" points="545.21 295.98 540.21 302.23 551.72 304.14 553.58 300.12 545.21 295.98"/><polygon class="cls-10" points="529.17 319.86 536.78 331.64 577.37 336 583.32 322.52 529.17 319.86"/><polygon class="cls-11" points="529.17 319.86 536.78 331.64 577.37 336 583.32 322.52 529.17 319.86"/><polygon class="cls-10" points="542.5 299.4 530.03 319.86 583.51 322.86 583.57 301.54 542.5 299.4"/><polygon class="cls-11" points="542.5 299.4 530.03 319.86 583.51 322.86 583.57 301.54 542.5 299.4"/><polygon class="cls-12" points="569.93 365.76 568 374.16 572.22 374.16 576.54 365.76 569.93 365.76"/><polygon class="cls-13" points="569.93 365.76 568 374.16 572.22 374.16 576.54 365.76 569.93 365.76"/><polygon class="cls-12" points="592.24 355.5 591.38 356.5 599.99 363 602.66 356.06 592.24 355.5"/><polygon class="cls-13" points="592.24 355.5 591.38 356.5 599.99 363 602.66 356.06 592.24 355.5"/><polygon class="cls-12" points="579.43 352.89 579.43 359.65 587.29 360.15 592.5 354 579.43 352.89"/><polygon class="cls-13" points="579.43 352.89 579.43 359.65 587.29 360.15 592.5 354 579.43 352.89"/><polygon class="cls-12" points="580.64 334.47 580.64 355.56 602.5 358.28 613.43 335.65 580.64 334.47"/><polygon class="cls-13" points="580.64 334.47 580.64 355.56 602.5 358.28 613.43 335.65 580.64 334.47"/><polygon class="cls-12" points="594.5 302.23 576.83 337.33 609.5 343 622.78 317.84 594.5 302.23"/><polygon class="cls-13" points="594.5 302.23 576.83 337.33 609.5 343 622.78 317.84 594.5 302.23"/><polygon class="cls-12" points="570.48 360.15 569.98 366.98 580.64 365.38 583.82 359.42 570.48 360.15"/><polygon class="cls-13" points="570.48 360.15 569.98 366.98 580.64 365.38 583.82 359.42 570.48 360.15"/><polygon class="cls-12" points="568 335 567.27 344.01 586.79 343.51 587.29 339.18 568 335"/><polygon class="cls-13" points="568 335 567.27 344.01 586.79 343.51 587.29 339.18 568 335"/><polygon class="cls-12" points="514.46 335.5 513.4 359.65 581.73 362 582.29 340.78 514.46 335.5"/><polygon class="cls-13" points="514.46 335.5 513.4 359.65 581.73 362 582.29 340.78 514.46 335.5"/><polygon class="cls-12" points="584.01 302.23 584.01 335.88 612.5 337.33 613.43 304.14 584.01 302.23"/><polygon class="cls-13" points="584.01 302.23 584.01 335.88 612.5 337.33 613.43 304.14 584.01 302.23"/><rect class="cls-10" x="385.4" y="211.04" width="12" height="9.46"/><rect class="cls-11" x="385.4" y="211.04" width="12" height="9.46"/><polygon class="cls-10" points="370.35 204.25 369.15 213 382.61 213.53 383.11 203.5 370.35 204.25"/><polygon class="cls-11" points="370.35 204.25 369.15 213 382.61 213.53 383.11 203.5 370.35 204.25"/><polygon class="cls-10" points="363.12 211.5 363.12 224 385.4 225 385.9 210.54 363.12 211.5"/><polygon class="cls-11" points="363.12 211.5 363.12 224 385.4 225 385.9 210.54 363.12 211.5"/><polygon class="cls-14" points="301.78 238 299.33 245.19 313 249.38 316.59 243.18 301.78 238"/><polygon class="cls-15" points="301.78 238 299.33 245.19 313 249.38 316.59 243.18 301.78 238"/><polygon class="cls-14" points="294 243.8 281.5 272.53 305.03 283.61 316.59 251.24 294 243.8"/><polygon class="cls-15" points="294 243.8 281.5 272.53 305.03 283.61 316.59 251.24 294 243.8"/><polygon class="cls-16" points="105.42 265.94 105.42 274.56 113.71 275.06 112.74 265.94 105.42 265.94"/><polygon class="cls-17" points="105.42 265.94 105.42 274.56 113.71 275.06 112.74 265.94 105.42 265.94"/><polygon class="cls-16" points="141.37 218.02 139.78 235.5 149.49 233.17 149.49 218.02 141.37 218.02"/><polygon class="cls-17" points="141.37 218.02 139.78 235.5 149.49 233.17 149.49 218.02 141.37 218.02"/><polygon class="cls-16" points="117.27 193.52 117.27 198.51 142.65 198.51 143.87 196.5 117.27 193.52"/><polygon class="cls-17" points="117.27 193.52 117.27 198.51 142.65 198.51 143.87 196.5 117.27 193.52"/><polygon class="cls-16" points="121.6 246.4 121.6 251.83 129.17 251.83 130.27 249.12 121.6 246.4"/><polygon class="cls-17" points="121.6 246.4 121.6 251.83 129.17 251.83 130.27 249.12 121.6 246.4"/><polygon class="cls-16" points="97.68 238.33 96.19 248.63 121.6 249.07 123.01 237.83 97.68 238.33"/><polygon class="cls-17" points="97.68 238.33 96.19 248.63 121.6 249.07 123.01 237.83 97.68 238.33"/><polygon class="cls-16" points="88.5 249.13 87.87 260.27 129.67 267.5 129.35 249.13 88.5 249.13"/><polygon class="cls-17" points="88.5 249.13 87.87 260.27 129.67 267.5 129.35 249.13 88.5 249.13"/><polygon class="cls-16" points="99.98 216.5 96.94 240.15 140.28 239.65 143.15 217.52 99.98 216.5"/><polygon class="cls-17" points="99.98 216.5 96.94 240.15 140.28 239.65 143.15 217.52 99.98 216.5"/><polygon class="cls-16" points="84.04 221.82 80.94 251.83 88.5 251.79 92 223.02 84.04 221.82"/><polygon class="cls-17" points="84.04 221.82 80.94 251.83 88.5 251.79 92 223.02 84.04 221.82"/><polygon class="cls-16" points="86.5 197.01 84.28 224.91 140.78 224.95 143.13 197.51 86.5 197.01"/><polygon class="cls-17" points="86.5 197.01 84.28 224.91 140.78 224.95 143.13 197.51 86.5 197.01"/><polygon class="cls-16" points="105.89 273.03 105.89 289 123.99 289 124.49 273.9 105.89 273.03"/><polygon class="cls-17" points="105.89 273.03 105.89 289 123.99 289 124.49 273.9 105.89 273.03"/><rect class="cls-16" x="76.71" y="337.24" width="4.78" height="9.58"/><rect class="cls-17" x="76.71" y="337.24" width="4.78" height="9.58"/><polygon class="cls-16" points="72.54 333.05 72.54 338.46 78.09 338.46 78.59 335.01 72.54 333.05"/><polygon class="cls-17" points="72.54 333.05 72.54 338.46 78.09 338.46 78.59 335.01 72.54 333.05"/><polygon class="cls-16" points="78.55 332.54 76.88 349.5 116.3 350.68 117.3 333.78 78.55 332.54"/><polygon class="cls-17" points="78.55 332.54 76.88 349.5 116.3 350.68 117.3 333.78 78.55 332.54"/><polygon class="cls-16" points="123.51 274.4 115.5 352.37 139.3 352.37 143.87 275.76 123.51 274.4"/><polygon class="cls-17" points="123.51 274.4 115.5 352.37 139.3 352.37 143.87 275.76 123.51 274.4"/><polygon class="cls-16" points="84.78 259.98 83.8 267.5 112.35 267.51 112.35 259.98 84.78 259.98"/><polygon class="cls-17" points="84.78 259.98 83.8 267.5 112.35 267.51 112.35 259.98 84.78 259.98"/><polygon class="cls-16" points="79.02 245.39 78.59 260.55 88.5 261.55 88.5 245.9 79.02 245.39"/><polygon class="cls-17" points="79.02 245.39 78.59 260.55 88.5 261.55 88.5 245.9 79.02 245.39"/><polygon class="cls-16" points="67.08 265.98 65.82 289.96 87.5 291.86 87.5 267.5 67.08 265.98"/><polygon class="cls-17" points="67.08 265.98 65.82 289.96 87.5 291.86 87.5 267.5 67.08 265.98"/><polygon class="cls-16" points="82.5 282.84 83 302.04 103.39 302.04 104.39 288.5 82.5 282.84"/><polygon class="cls-17" points="82.5 282.84 83 302.04 103.39 302.04 104.39 288.5 82.5 282.84"/><rect class="cls-16" x="64.5" y="299.5" width="19.28" height="20.62"/><rect class="cls-17" x="64.5" y="299.5" width="19.28" height="20.62"/><polygon class="cls-16" points="44.56 280.5 44.56 302.53 83.78 302.53 84.78 286.33 44.56 280.5"/><polygon class="cls-17" points="44.56 280.5 44.56 302.53 83.78 302.53 84.78 286.33 44.56 280.5"/><polygon class="cls-16" points="44.56 320.12 45.06 338.47 71.16 340.72 74.18 320.12 44.56 320.12"/><polygon class="cls-17" points="44.56 320.12 45.06 338.47 71.16 340.72 74.18 320.12 44.56 320.12"/><polygon class="cls-16" points="55.39 234.72 53.89 251.83 78.04 253.17 76.71 237.42 55.39 234.72"/><polygon class="cls-17" points="55.39 234.72 53.89 251.83 78.04 253.17 76.71 237.42 55.39 234.72"/><polygon class="cls-16" points="37.45 217.08 28 331.54 45.06 333.03 57.41 218.03 37.45 217.08"/><polygon class="cls-17" points="37.45 217.08 28 331.54 45.06 333.03 57.41 218.03 37.45 217.08"/><polygon class="cls-16" points="40 189.54 37.5 217.52 92 217.58 92 189.54 40 189.54"/><polygon class="cls-17" points="40 189.54 37.5 217.52 92 217.58 92 189.54 40 189.54"/><polygon class="cls-2" points="0.5 505 817 508.25 817.01 479.5 0.5 477 0.5 505"/><g class="cls-4"><polygon class="cls-18" points="0.5 477 0.5 505 817 508.25 817.01 479.5 0.5 477"/></g><polygon class="cls-19" points="162.97 415.25 161.53 460.51 199.89 463 201.53 417.53 162.97 415.25"/><polygon class="cls-20" points="162.97 415.25 161.53 460.51 199.89 463 201.53 417.53 162.97 415.25"/><polygon class="cls-19" points="206.49 354.96 198 463.5 263.02 465.5 268.5 356.41 206.49 354.96"/><polygon class="cls-20" points="206.49 354.96 198 463.5 263.02 465.5 268.5 356.41 206.49 354.96"/><polygon class="cls-21" points="428.92 324.93 428.92 350.47 445.97 353.09 448.06 324.49 428.92 324.93"/><polygon class="cls-22" points="428.92 324.93 428.92 350.47 445.97 353.09 448.06 324.49 428.92 324.93"/><polygon class="cls-21" points="425.97 316.25 423.5 347.46 445.97 347.46 447.02 319.86 425.97 316.25"/><polygon class="cls-22" points="425.97 316.25 423.5 347.46 445.97 347.46 447.02 319.86 425.97 316.25"/><polygon class="cls-23" points="446.47 343.61 446.47 353.26 456.95 355 457.45 343.61 446.47 343.61"/><polygon class="cls-24" points="446.47 343.61 446.47 353.26 456.95 355 457.45 343.61 446.47 343.61"/><polygon class="cls-23" points="448.06 323.36 446.5 348.5 479 352.25 481.99 326.52 448.06 323.36"/><polygon class="cls-24" points="448.06 323.36 446.5 348.5 479 352.25 481.99 326.52 448.06 323.36"/><rect class="cls-23" x="426.47" y="454.67" width="6.55" height="3.83"/><rect class="cls-24" x="426.47" y="454.67" width="6.55" height="3.83"/><rect class="cls-23" x="435.46" y="367.48" width="4.08" height="6.18"/><rect class="cls-24" x="435.46" y="367.48" width="4.08" height="6.18"/><polygon class="cls-23" points="440.05 367.48 431.5 459 464.58 462.5 474.6 370.41 440.05 367.48"/><polygon class="cls-24" points="440.05 367.48 431.5 459 464.58 462.5 474.6 370.41 440.05 367.48"/><polygon class="cls-6" points="374.76 305.6 374.76 323.93 385.89 322.85 381 307.39 374.76 305.6"/><polygon class="cls-7" points="374.76 305.6 374.76 323.93 385.89 322.85 381 307.39 374.76 305.6"/><polygon class="cls-6" points="378 270.22 362.86 316.32 374.26 320.39 395.5 277.46 378 270.22"/><polygon class="cls-7" points="378 270.22 362.86 316.32 374.26 320.39 395.5 277.46 378 270.22"/><polygon class="cls-6" points="349.64 300.58 340.29 321.17 359.1 330.73 384.9 322.35 349.64 300.58"/><polygon class="cls-7" points="349.64 300.58 340.29 321.17 359.1 330.73 384.9 322.35 349.64 300.58"/><polygon class="cls-6" points="339.61 247.23 322.58 303.64 364 317.64 384.9 261.5 339.61 247.23"/><polygon class="cls-7" points="339.61 247.23 322.58 303.64 364 317.64 384.9 261.5 339.61 247.23"/><polygon class="cls-6" points="492 244.44 487.36 267.5 501.23 275.26 508.94 254.68 492 244.44"/><polygon class="cls-7" points="492 244.44 487.36 267.5 501.23 275.26 508.94 254.68 492 244.44"/><polygon class="cls-6" points="437.31 210.54 415.06 252.33 477.76 289.87 500.77 237.32 437.31 210.54"/><polygon class="cls-7" points="437.31 210.54 415.06 252.33 477.76 289.87 500.77 237.32 437.31 210.54"/><polygon class="cls-10" points="763.64 358.78 763.84 366.5 768.75 369.27 773.13 359.88 763.64 358.78"/><polygon class="cls-11" points="763.64 358.78 763.84 366.5 768.75 369.27 773.13 359.88 763.64 358.78"/><polygon class="cls-10" points="755.06 361 747.5 369.97 757.37 377.24 765.2 361 755.06 361"/><polygon class="cls-11" points="755.06 361 747.5 369.97 757.37 377.24 765.2 361 755.06 361"/><rect class="cls-10" x="752.5" y="344.75" width="3.06" height="6.25"/><rect class="cls-11" x="752.5" y="344.75" width="3.06" height="6.25"/><rect class="cls-10" x="755.7" y="330.48" width="14.97" height="35.02"/><rect class="cls-11" x="755.7" y="330.48" width="14.97" height="35.02"/><polygon class="cls-10" points="755.95 320.77 749.06 332.23 770.73 336 770.73 328.39 755.95 320.77"/><polygon class="cls-11" points="755.95 320.77 749.06 332.23 770.73 336 770.73 328.39 755.95 320.77"/><rect class="cls-25" x="586.45" y="201.4" width="6.05" height="7.29"/><rect class="cls-26" x="586.45" y="201.4" width="6.05" height="7.29"/><rect class="cls-25" x="551.37" y="260.47" width="5.58" height="3.29"/><rect class="cls-26" x="551.37" y="260.47" width="5.58" height="3.29"/><rect class="cls-25" x="621.47" y="247.09" width="95.03" height="3.72"/><rect class="cls-26" x="621.47" y="247.09" width="95.03" height="3.72"/><rect class="cls-25" x="597.49" y="251.31" width="119.01" height="20.53"/><rect class="cls-26" x="597.49" y="251.31" width="119.01" height="20.53"/><rect class="cls-25" x="556.5" y="257" width="145.26" height="26.74"/><rect class="cls-26" x="556.5" y="257" width="145.26" height="26.74"/><polygon class="cls-25" points="563.98 227.06 564.48 283.34 599.46 283.34 599.49 227.06 563.98 227.06"/><polygon class="cls-26" points="563.98 227.06 564.48 283.34 599.46 283.34 599.49 227.06 563.98 227.06"/><rect class="cls-25" x="560.36" y="216.5" width="39.12" height="14.12"/><rect class="cls-26" x="560.36" y="216.5" width="39.12" height="14.12"/><rect class="cls-25" x="542.5" y="204.75" width="56.99" height="16"/><rect class="cls-26" x="542.5" y="204.75" width="56.99" height="16"/><rect class="cls-27" x="711.17" y="453" width="19.33" height="4.05"/><rect class="cls-28" x="711.17" y="453" width="19.33" height="4.05"/><rect class="cls-27" x="713.07" y="418.5" width="5.08" height="8.28"/><rect class="cls-28" x="713.07" y="418.5" width="5.08" height="8.28"/><rect class="cls-27" x="694.16" y="424.88" width="36.82" height="28.12"/><rect class="cls-28" x="694.16" y="424.88" width="36.82" height="28.12"/><polygon class="cls-27" points="713.38 367.5 707.5 419.52 733.94 419.02 733.94 367.5 713.38 367.5"/><polygon class="cls-28" points="713.38 367.5 707.5 419.52 733.94 419.02 733.94 367.5 713.38 367.5"/><polygon class="cls-27" points="725.42 363.5 724.42 369.26 733.44 369.83 733.44 363.5 725.42 363.5"/><polygon class="cls-28" points="725.42 363.5 724.42 369.26 733.44 369.83 733.44 363.5 725.42 363.5"/><polygon class="cls-27" points="694.63 395.6 694.63 420.02 730.98 421.02 730.48 395.6 694.63 395.6"/><polygon class="cls-28" points="694.63 395.6 694.63 420.02 730.98 421.02 730.48 395.6 694.63 395.6"/><rect class="cls-27" x="688.62" y="387.5" width="44.82" height="7.6"/><rect class="cls-28" x="688.62" y="387.5" width="44.82" height="7.6"/><polygon class="cls-27" points="677.98 363 677.98 389.11 711.17 387 713.86 363.73 677.98 363"/><polygon class="cls-28" points="677.98 363 677.98 389.11 711.17 387 713.86 363.73 677.98 363"/><polygon class="cls-29" points="618.1 421.77 617.67 440.71 671.26 443.62 670.76 421.77 618.1 421.77"/><polygon class="cls-30" points="618.1 421.77 617.67 440.71 671.26 443.62 670.76 421.77 618.1 421.77"/><rect class="cls-29" x="635.1" y="414.35" width="8.08" height="19.15"/><rect class="cls-30" x="635.1" y="414.35" width="8.08" height="19.15"/><polygon class="cls-29" points="650 447.96 650.58 461.55 664.89 463.05 664.89 447.96 650 447.96"/><polygon class="cls-30" points="650 447.96 650.58 461.55 664.89 463.05 664.89 447.96 650 447.96"/><polygon class="cls-29" points="670.22 408.06 670.22 443.62 686 445 689.24 409.31 670.22 408.06"/><polygon class="cls-30" points="670.22 408.06 670.22 443.62 686 445 689.24 409.31 670.22 408.06"/><polygon class="cls-29" points="611.77 431.41 609.27 457.05 650.58 461 650.58 430.91 611.77 431.41"/><polygon class="cls-30" points="611.77 431.41 609.27 457.05 650.58 461 650.58 430.91 611.77 431.41"/><polygon class="cls-29" points="616.3 397.1 615 420.73 634.1 420.8 634.1 397.1 616.3 397.1"/><polygon class="cls-30" points="616.3 397.1 615 420.73 634.1 420.8 634.1 397.1 616.3 397.1"/><rect class="cls-31" x="565.5" y="434.5" width="16.14" height="9.99"/><rect class="cls-32" x="565.5" y="434.5" width="16.14" height="9.99"/><rect class="cls-31" x="546.43" y="434.5" width="35.2" height="4.13"/><rect class="cls-32" x="546.43" y="434.5" width="35.2" height="4.13"/><polygon class="cls-31" points="533.9 433.5 533.47 440.25 546.88 442 547.84 433.5 533.9 433.5"/><polygon class="cls-32" points="533.9 433.5 533.47 440.25 546.88 442 547.84 433.5 533.9 433.5"/><polygon class="cls-31" points="568.47 398.82 568.47 410.51 584.5 410.51 585.74 399.34 568.47 398.82"/><polygon class="cls-32" points="568.47 398.82 568.47 410.51 584.5 410.51 585.74 399.34 568.47 398.82"/><polygon class="cls-31" points="505.89 406.12 512 436 582.5 436.5 584.5 409.56 505.89 406.12"/><polygon class="cls-32" points="505.89 406.12 512 436 582.5 436.5 584.5 409.56 505.89 406.12"/><line class="cls-32" x1="516.97" y1="407.12" x2="538.5" y2="407.62"/><polygon class="cls-31" points="536.93 380.31 533.97 411.01 554.5 420 559.75 380.5 536.93 380.31"/><polygon class="cls-32" points="536.93 380.31 533.97 411.01 554.5 420 559.75 380.5 536.93 380.31"/><polygon class="cls-31" points="502.95 379 500.36 412.75 516.15 414.44 521.55 380.44 502.95 379"/><polygon class="cls-32" points="502.95 379 500.36 412.75 516.15 414.44 521.55 380.44 502.95 379"/><polygon class="cls-31" points="496.75 411.54 496.75 437.76 512.92 438.51 513.15 411.01 496.75 411.54"/><polygon class="cls-32" points="496.75 411.54 496.75 437.76 512.92 438.51 513.15 411.01 496.75 411.54"/><rect class="cls-2" x="601.49" y="202.4" width="91.66" height="42.69"/><rect class="cls-33" x="601.49" y="202.4" width="91.66" height="42.69"/><rect class="cls-2" x="325.39" y="334.19" width="58.82" height="89.31" transform="translate(-32.71 729.6) rotate(-88.5)"/><rect class="cls-34" x="325.39" y="334.19" width="58.82" height="89.31" transform="translate(-32.71 729.6) rotate(-88.5)"/><path class="cls-35" d="M118,15" transform="translate(0.5 6)"/><path class="cls-35" d="M117.89,14.51" transform="translate(0.5 6)"/><path class="cls-35" d="M173,63.2" transform="translate(0.5 6)"/><path class="cls-35" d="M107,48" transform="translate(0.5 6)"/><path class="cls-35" d="M182,30" transform="translate(0.5 6)"/><path class="cls-35" d="M116,15" transform="translate(0.5 6)"/><path class="cls-35" d="M107,47.83" transform="translate(0.5 6)"/><polygon class="cls-36" points="116.39 21 107.95 53.34 173.92 68.71 182.05 36.49 116.39 21"/><polygon class="cls-35" points="116.39 21 107.95 53.34 173.92 68.71 182.05 36.49 116.39 21"/><path class="cls-35" d="M172.87,62.71" transform="translate(0.5 6)"/><path class="cls-35" d="M182,30" transform="translate(0.5 6)"/><path class="cls-35" d="M182.11,30.49" transform="translate(0.5 6)"/><path class="cls-35" d="M115.89,14.51" transform="translate(0.5 6)"/><rect class="cls-16" x="150.96" y="152.04" width="14.5" height="43.95" transform="translate(-20.71 332.06) rotate(-88)"/><rect class="cls-35" x="150.96" y="152.04" width="14.5" height="43.95" transform="translate(-20.71 332.06) rotate(-88)"/><rect class="cls-37" x="199" y="192.5" width="26" height="28"/><rect class="cls-35" x="199" y="192.5" width="26" height="28"/><rect class="cls-37" x="247" y="251.5" width="30" height="20"/><rect class="cls-35" x="247" y="251.5" width="30" height="20"/><rect class="cls-38" x="296" y="180.51" width="12" height="32.99"/><rect class="cls-35" x="296" y="180.51" width="12" height="32.99"/><rect class="cls-39" x="99" y="391.5" width="20" height="54"/><rect class="cls-35" x="99" y="391.5" width="20" height="54"/><rect class="cls-40" x="752" y="436.5" width="16" height="20"/><rect class="cls-35" x="752" y="436.5" width="16" height="20"/><polygon class="cls-41" points="692 171.5 691.5 209 712.5 209.62 712 171.5 692 171.5"/><polygon class="cls-35" points="692 171.5 691.5 209 712.5 209.62 712 171.5 692 171.5"/><rect class="cls-42" x="691.49" y="144.5" width="26" height="14.5"/><rect class="cls-35" x="691.49" y="144.5" width="26" height="14.5"/><rect class="cls-42" x="720.9" y="141.05" width="29" height="20" transform="translate(-14.56 136) rotate(-10)"/><rect class="cls-35" x="720.9" y="141.05" width="29" height="20" transform="translate(-14.56 136) rotate(-10)"/><rect class="cls-19" x="309" y="513.5" width="193" height="247"/><rect class="cls-35" x="309" y="513.5" width="193" height="247"/><rect class="cls-43" x="367" y="513.5" width="55" height="28"/><rect class="cls-35" x="367" y="513.5" width="55" height="28"/><rect class="cls-19" x="329.88" y="400.87" width="47.91" height="67" transform="translate(-92.12 778.83) rotate(-88)"/><rect class="cls-35" x="329.88" y="400.87" width="47.91" height="67" transform="translate(-92.12 778.83) rotate(-88)"/><rect class="cls-44" x="341.91" y="410.36" width="22.99" height="49" transform="translate(-93.02 778.88) rotate(-88)"/><rect class="cls-35" x="341.91" y="410.36" width="22.99" height="49" transform="translate(-93.02 778.88) rotate(-88)"/><rect class="cls-45" x="319" y="339" width="20" height="37" transform="translate(-39.26 679.82) rotate(-88)"/><rect class="cls-35" x="319" y="339" width="20" height="37" transform="translate(-39.26 679.82) rotate(-88)"/><rect class="cls-46" x="336.51" y="213.33" width="7" height="14.35" transform="translate(54.15 513.26) rotate(-78)"/><rect class="cls-35" x="336.51" y="213.33" width="7" height="14.35" transform="translate(54.15 513.26) rotate(-78)"/><rect class="cls-46" x="349.91" y="222.2" width="7" height="7.65" transform="translate(59.37 530.73) rotate(-78)"/><rect class="cls-35" x="349.91" y="222.2" width="7" height="7.65" transform="translate(59.37 530.73) rotate(-78)"/><line class="cls-35" x1="339.63" y1="451.68" x2="340.42" y2="429.01"/><line class="cls-35" x1="368.25" y1="429.76" x2="367.42" y2="453.65"/><line class="cls-35" x1="354.68" y1="429.76" x2="353.91" y2="451.76"/><line class="cls-35" x1="329.5" y1="440.27" x2="340.01" y2="440.64"/><line class="cls-35" x1="367.85" y1="442.19" x2="379.3" y2="442.59"/><polygon class="cls-44" points="213.23 363.5 212.5 388.61 257.25 390.48 257.99 365.37 213.23 363.5"/><polygon class="cls-35" points="213.23 363.5 212.5 388.61 257.25 390.48 257.99 365.37 213.23 363.5"/><line class="cls-35" x1="222.21" y1="388.78" x2="222.85" y2="364.07"/><line class="cls-35" x1="248.34" y1="364.35" x2="247.66" y2="389.93"/><line class="cls-35" x1="235.91" y1="364.9" x2="235.29" y2="389.17"/><polygon class="cls-44" points="212.79 396.5 212.06 421.61 256.81 423.48 257.54 398.37 212.79 396.5"/><polygon class="cls-35" points="212.79 396.5 212.06 421.61 256.81 423.48 257.54 398.37 212.79 396.5"/><line class="cls-35" x1="221.77" y1="421.78" x2="222.41" y2="397.07"/><line class="cls-35" x1="247.9" y1="397.9" x2="247.22" y2="423.48"/><line class="cls-35" x1="235.47" y1="397.9" x2="234.85" y2="422.22"/><polygon class="cls-44" points="211.75 429.52 211.01 454.63 255.77 456.5 256.5 431.39 211.75 429.52"/><polygon class="cls-35" points="211.75 429.52 211.01 454.63 255.77 456.5 256.5 431.39 211.75 429.52"/><line class="cls-35" x1="220.73" y1="454.8" x2="221.37" y2="430.09"/><line class="cls-35" x1="246.85" y1="430.91" x2="246.18" y2="456.1"/><line class="cls-35" x1="234.43" y1="430.91" x2="233.81" y2="455.58"/><line class="cls-35" x1="212.98" y1="376.43" x2="223.09" y2="376.88"/><line class="cls-35" x1="248.34" y1="377.38" x2="258.02" y2="377.91"/><line class="cls-35" x1="211.98" y1="409.43" x2="221.87" y2="409.43"/><line class="cls-35" x1="247.35" y1="410.91" x2="257.02" y2="410.91"/><line class="cls-35" x1="211.51" y1="442.04" x2="221.04" y2="442.4"/><line class="cls-35" x1="246.53" y1="443.51" x2="255.65" y2="443.79"/><line class="cls-35" x1="206.5" y1="354" x2="269.5" y2="355.92"/><line class="cls-35" x1="202" y1="417" x2="205.99" y2="353.53"/><line class="cls-35" x1="162.5" y1="414.75" x2="201.5" y2="417.03"/><line class="cls-35" x1="161.5" y1="461" x2="162.47" y2="414.25"/><line class="cls-35" x1="161" y1="461.01" x2="263.5" y2="466"/><line class="cls-35" x1="269.02" y1="355.92" x2="263.02" y2="466"/><line class="cls-35" x1="339.5" y1="247" x2="385.74" y2="261.5"/><line class="cls-35" x1="381.21" y1="269.88" x2="384.94" y2="261.6"/><line class="cls-35" x1="396.5" y1="277" x2="381.03" y2="270.17"/><line class="cls-35" x1="380.2" y1="307.6" x2="396.33" y2="276.4"/><line class="cls-35" x1="380.76" y1="307.08" x2="385.54" y2="322.7"/><line class="cls-35" x1="359.5" y1="331" x2="385.74" y2="322.91"/><line class="cls-35" x1="339.35" y1="320.56" x2="359.36" y2="331.48"/><line class="cls-35" x1="344.5" y1="312" x2="340.26" y2="320.56"/><line class="cls-35" x1="322.5" y1="303" x2="344.95" y2="311.79"/><line class="cls-35" x1="339.81" y1="246.52" x2="323.06" y2="304"/><line class="cls-35" x1="280.96" y1="272.33" x2="293.96" y2="242.33"/><line class="cls-35" x1="293.66" y1="242.8" x2="299.16" y2="244.71"/><line class="cls-35" x1="299.33" y1="245.19" x2="301.3" y2="237.44"/><line class="cls-35" x1="300.66" y1="237.47" x2="316.43" y2="242.83"/><line class="cls-35" x1="317.11" y1="242.67" x2="313.44" y2="249.14"/><line class="cls-35" x1="313.5" y1="249" x2="317.77" y2="251.91"/><line class="cls-35" x1="305.5" y1="284" x2="317.33" y2="251"/><line class="cls-35" x1="279.96" y1="272.21" x2="306.5" y2="284.01"/><line class="cls-35" x1="438" y1="183" x2="468.5" y2="184"/><line class="cls-35" x1="438" y1="182.5" x2="438" y2="198.54"/><line class="cls-35" x1="438" y1="198.54" x2="452" y2="199.04"/><line class="cls-35" x1="451.5" y1="206" x2="468.52" y2="206"/><line class="cls-35" x1="468.52" y1="184.5" x2="468.52" y2="206.5"/><line class="cls-35" x1="451.5" y1="198.54" x2="451.5" y2="205.5"/><line class="cls-35" x1="510.5" y1="186" x2="537.04" y2="186"/><line class="cls-35" x1="510.5" y1="221" x2="510.5" y2="186.5"/><line class="cls-35" x1="510" y1="221" x2="527" y2="221"/><line class="cls-35" x1="527" y1="203.75" x2="527" y2="220.5"/><line class="cls-35" x1="526.5" y1="203.75" x2="539.5" y2="203.75"/><line class="cls-35" x1="539.5" y1="198.04" x2="539.5" y2="203.75"/><line class="cls-35" x1="537.04" y1="185.5" x2="537.04" y2="198.54"/><line class="cls-35" x1="536.54" y1="198.54" x2="539" y2="198.54"/><line class="cls-35" x1="369.5" y1="203.75" x2="383.65" y2="203.25"/><line class="cls-35" x1="369.85" y1="203.74" x2="369.65" y2="210.51"/><line class="cls-35" x1="362.62" y1="211" x2="369.5" y2="211"/><line class="cls-35" x1="362.62" y1="225" x2="362.62" y2="211"/><line class="cls-35" x1="363.12" y1="225" x2="385.4" y2="225"/><line class="cls-35" x1="385.4" y1="225" x2="385.4" y2="221.5"/><line class="cls-35" x1="385.4" y1="221.5" x2="398.4" y2="221.5"/><line class="cls-35" x1="398.4" y1="210.5" x2="398.4" y2="221.5"/><line class="cls-35" x1="383.15" y1="210.5" x2="398.4" y2="210.5"/><line class="cls-35" x1="383.15" y1="210.5" x2="383.07" y2="203.75"/><line class="cls-35" x1="415.5" y1="251" x2="437.5" y2="210.53"/><line class="cls-35" x1="477.5" y1="290" x2="414.47" y2="251.24"/><line class="cls-35" x1="477.76" y1="290.43" x2="488.28" y2="267.74"/><line class="cls-35" x1="500.5" y1="275.26" x2="488.73" y2="267.53"/><line class="cls-35" x1="510" y1="254.25" x2="500.77" y2="275.26"/><line class="cls-35" x1="496.5" y1="246.52" x2="510" y2="254.25"/><line class="cls-35" x1="500.77" y1="236.83" x2="496.25" y2="246.52"/><line class="cls-35" x1="437.5" y1="211" x2="500.32" y2="236.83"/><line class="cls-35" x1="541.5" y1="204.25" x2="586.45" y2="204.25"/><line class="cls-35" x1="586.45" y1="204.75" x2="586.45" y2="200.9"/><line class="cls-35" x1="593.5" y1="204.75" x2="593.5" y2="200.9"/><line class="cls-35" x1="593.5" y1="200.89" x2="585.95" y2="200.89"/><line class="cls-35" x1="593.5" y1="204.75" x2="600.49" y2="204.75"/><line class="cls-35" x1="600.49" y1="250.81" x2="600.49" y2="204.75"/><line class="cls-35" x1="600.49" y1="250.81" x2="620.97" y2="250.81"/><line class="cls-35" x1="620.97" y1="250.81" x2="620.97" y2="246.09"/><line class="cls-35" x1="621.47" y1="246.09" x2="717.5" y2="246.09"/><line class="cls-35" x1="717.5" y1="246.09" x2="717.5" y2="272.84"/><line class="cls-35" x1="717.5" y1="272.84" x2="702" y2="272.84"/><line class="cls-35" x1="702" y1="272.84" x2="702" y2="283.84"/><line class="cls-35" x1="702" y1="283.84" x2="555.5" y2="283.84"/><line class="cls-35" x1="555.5" y1="283.34" x2="555.5" y2="264.76"/><line class="cls-35" x1="556" y1="264.76" x2="551.17" y2="264.76"/><line class="cls-35" x1="551.17" y1="264.76" x2="551.17" y2="259.47"/><line class="cls-35" x1="551.67" y1="259.47" x2="556" y2="259.47"/><line class="cls-35" x1="556" y1="256" x2="556" y2="259.97"/><line class="cls-35" x1="556.5" y1="256" x2="563.97" y2="256"/><line class="cls-35" x1="560.24" y1="221.5" x2="560.24" y2="231.62"/><line class="cls-35" x1="560.74" y1="231.62" x2="563.98" y2="231.62"/><line class="cls-35" x1="563.97" y1="256.5" x2="563.97" y2="231.62"/><line class="cls-35" x1="541.5" y1="204.25" x2="541.5" y2="221"/><line class="cls-35" x1="542" y1="221" x2="559.74" y2="221.5"/><line class="cls-35" x1="615.5" y1="171" x2="662.04" y2="171"/><line class="cls-35" x1="662.54" y1="169" x2="662.04" y2="171"/><line class="cls-35" x1="649.5" y1="169" x2="662.04" y2="169"/><line class="cls-35" x1="649.5" y1="169" x2="649.5" y2="153"/><line class="cls-35" x1="649.5" y1="153" x2="664.75" y2="153"/><line class="cls-35" x1="664.75" y1="152.5" x2="664.75" y2="155.35"/><line class="cls-35" x1="664.75" y1="155.35" x2="686.76" y2="155.35"/><line class="cls-35" x1="686.76" y1="154.85" x2="686.76" y2="171"/><line class="cls-35" x1="686.76" y1="171" x2="689.7" y2="171"/><line class="cls-35" x1="689.7" y1="171" x2="689.7" y2="180.01"/><line class="cls-35" x1="689.2" y1="180.01" x2="684.37" y2="180.01"/><line class="cls-35" x1="684.37" y1="180.01" x2="684.37" y2="200.9"/><line class="cls-35" x1="684.37" y1="200.89" x2="649.5" y2="201.39"/><line class="cls-35" x1="650" y1="201.14" x2="650" y2="203.75"/><line class="cls-35" x1="615.5" y1="201.39" x2="645.5" y2="200.89"/><line class="cls-35" x1="615.49" y1="201.14" x2="615.49" y2="190.57"/><line class="cls-35" x1="614.99" y1="190.57" x2="609.56" y2="190.57"/><line class="cls-35" x1="609.56" y1="191.07" x2="609.56" y2="187.07"/><line class="cls-35" x1="609.56" y1="187.07" x2="614.99" y2="187.07"/><line class="cls-35" x1="614.99" y1="186.57" x2="614.99" y2="170.5"/><line class="cls-35" x1="669.5" y1="155.35" x2="669.5" y2="201.89"/><line class="cls-35" x1="425.5" y1="316.28" x2="447.5" y2="319"/><line class="cls-35" x1="447.56" y1="319.5" x2="447.56" y2="322.85"/><line class="cls-35" x1="447.06" y1="322.85" x2="481.95" y2="326.02"/><line class="cls-35" x1="479.5" y1="352.34" x2="481.99" y2="326.02"/><line class="cls-35" x1="457.5" y1="350" x2="479" y2="352.34"/><line class="cls-35" x1="457.45" y1="355" x2="457.45" y2="349.5"/><line class="cls-35" x1="428.5" y1="351.17" x2="456.95" y2="355"/><line class="cls-35" x1="428.43" y1="348" x2="428.43" y2="351.17"/><line class="cls-35" x1="423.5" y1="348" x2="428.43" y2="348"/><line class="cls-35" x1="422.78" y1="347.91" x2="426.1" y2="316.37"/><line class="cls-35" x1="448.06" y1="322.85" x2="445.98" y2="353.09"/><line class="cls-35" x1="435.5" y1="367" x2="474.56" y2="369.91"/><line class="cls-35" x1="435.46" y1="374.66" x2="439.55" y2="374.66"/><line class="cls-35" x1="435.46" y1="366.5" x2="435.46" y2="374.16"/><line class="cls-35" x1="474.6" y1="370.33" x2="465.07" y2="463.5"/><line class="cls-35" x1="439.55" y1="375.16" x2="432" y2="453.67"/><line class="cls-35" x1="426.59" y1="453.67" x2="431.5" y2="453.67"/><line class="cls-35" x1="425.97" y1="459" x2="425.97" y2="453.72"/><line class="cls-35" x1="425.97" y1="459" x2="465.02" y2="463"/><line class="cls-35" x1="502.5" y1="378" x2="521.5" y2="380"/><line class="cls-35" x1="521.55" y1="380.5" x2="517.47" y2="406.54"/><line class="cls-35" x1="516.97" y1="406.62" x2="533.97" y2="406.62"/><line class="cls-35" x1="533.97" y1="406.62" x2="536.43" y2="380.42"/><line class="cls-35" x1="536.93" y1="380.37" x2="559.75" y2="380.5"/><line class="cls-35" x1="556.5" y1="408" x2="559.75" y2="380.37"/><line class="cls-35" x1="556" y1="408.06" x2="567.46" y2="409.06"/><line class="cls-35" x1="567.5" y1="409.56" x2="567.5" y2="397.76"/><line class="cls-35" x1="568" y1="397.76" x2="585.71" y2="398.89"/><line class="cls-35" x1="585.74" y1="399.39" x2="581.5" y2="446"/><line class="cls-35" x1="565.5" y1="445.49" x2="581" y2="445.49"/><line class="cls-35" x1="565" y1="445.99" x2="564.9" y2="439.01"/><line class="cls-35" x1="565" y1="439.01" x2="548.34" y2="439.01"/><line class="cls-35" x1="548.34" y1="438.51" x2="546.88" y2="442"/><line class="cls-35" x1="547.35" y1="442.25" x2="533.47" y2="440.25"/><line class="cls-35" x1="533.4" y1="441.25" x2="533.4" y2="436"/><line class="cls-35" x1="533.4" y1="436" x2="512.92" y2="436"/><line class="cls-35" x1="512.92" y1="436" x2="512.92" y2="438.51"/><line class="cls-35" x1="496.25" y1="437.76" x2="496.25" y2="411.01"/><line class="cls-35" x1="496.75" y1="411.01" x2="500.24" y2="411.01"/><line class="cls-35" x1="500.24" y1="411.51" x2="502.45" y2="377.5"/><line class="cls-35" x1="614.5" y1="421" x2="615.5" y2="396.12"/><line class="cls-35" x1="616" y1="396.1" x2="635.1" y2="396.1"/><line class="cls-35" x1="635.1" y1="396.6" x2="635.1" y2="413.35"/><line class="cls-35" x1="634.6" y1="413.35" x2="643.68" y2="413.35"/><line class="cls-35" x1="643.68" y1="413.85" x2="643.68" y2="421.02"/><line class="cls-35" x1="643.18" y1="421.02" x2="669.72" y2="421.02"/><line class="cls-35" x1="669.72" y1="421.02" x2="669.72" y2="408.06"/><line class="cls-35" x1="669.22" y1="408.06" x2="689.7" y2="409.56"/><line class="cls-35" x1="689.74" y1="409.56" x2="686.5" y2="444.99"/><line class="cls-35" x1="686.01" y1="444.99" x2="651.12" y2="442.25"/><line class="cls-35" x1="651.08" y1="442.25" x2="651.08" y2="447.96"/><line class="cls-35" x1="650.58" y1="447.96" x2="665.83" y2="447.96"/><line class="cls-35" x1="665.83" y1="448.46" x2="665.83" y2="463.55"/><line class="cls-35" x1="665.33" y1="463.55" x2="609.33" y2="457"/><line class="cls-35" x1="609.27" y1="457" x2="611.27" y2="430.95"/><line class="cls-35" x1="611.77" y1="430.91" x2="617.6" y2="430.91"/><line class="cls-35" x1="617.6" y1="430.41" x2="617.6" y2="421.02"/><line class="cls-35" x1="617.6" y1="421.02" x2="614" y2="420.52"/><line class="cls-35" x1="679.46" y1="362" x2="714.35" y2="363"/><line class="cls-35" x1="714.36" y1="362.5" x2="713.36" y2="366.5"/><line class="cls-35" x1="712.88" y1="366.5" x2="724.42" y2="366.5"/><line class="cls-35" x1="724.42" y1="366" x2="724.42" y2="362.5"/><line class="cls-35" x1="723.92" y1="362.5" x2="734.44" y2="362.5"/><line class="cls-35" x1="734.44" y1="362.5" x2="734.44" y2="420.03"/><line class="cls-35" x1="733.94" y1="420.02" x2="731.48" y2="420.02"/><line class="cls-35" x1="731.48" y1="419.52" x2="731.48" y2="421.51"/><line class="cls-35" x1="730.98" y1="421.52" x2="718.65" y2="421.02"/><line class="cls-35" x1="718.63" y1="420.52" x2="718.63" y2="424.38"/><line class="cls-35" x1="718.63" y1="424.38" x2="730.98" y2="424.38"/><line class="cls-35" x1="730.98" y1="424.38" x2="731.48" y2="457.04"/><line class="cls-35" x1="731.23" y1="457.05" x2="710.67" y2="457"/><line class="cls-35" x1="710.67" y1="457" x2="710.67" y2="453"/><line class="cls-35" x1="710.67" y1="453" x2="693.66" y2="453"/><line class="cls-35" x1="693.66" y1="453" x2="693.66" y2="423.88"/><line class="cls-35" x1="694.16" y1="423.88" x2="712.88" y2="423.88"/><line class="cls-35" x1="712.88" y1="423.38" x2="712.88" y2="421.02"/><line class="cls-35" x1="712.38" y1="421.02" x2="694.16" y2="420.03"/><line class="cls-35" x1="694.16" y1="420.02" x2="694.16" y2="395.6"/><line class="cls-35" x1="694.66" y1="395.6" x2="688.12" y2="395.6"/><line class="cls-35" x1="688.12" y1="395.1" x2="688.12" y2="389.11"/><line class="cls-35" x1="687.62" y1="389.11" x2="677.48" y2="389.11"/><line class="cls-35" x1="677.48" y1="388.61" x2="677.48" y2="362"/><line class="cls-35" x1="677.48" y1="362" x2="680.48" y2="362"/><path class="cls-35" d="M746,388.51" transform="translate(0.5 6)"/><line class="cls-35" x1="749.5" y1="332" x2="755.33" y2="321"/><line class="cls-35" x1="755.77" y1="320.77" x2="771.02" y2="327.94"/><line class="cls-35" x1="771.23" y1="328.39" x2="771.23" y2="360.11"/><line class="cls-35" x1="763.4" y1="366" x2="768.5" y2="369"/><line class="cls-35" x1="768.75" y1="369.43" x2="773.59" y2="360.11"/><line class="cls-35" x1="771.17" y1="359.88" x2="774.03" y2="359.88"/><line class="cls-35" x1="757.5" y1="377" x2="763.4" y2="366"/><line class="cls-35" x1="747.5" y1="369.66" x2="757.06" y2="377.24"/><line class="cls-35" x1="747.5" y1="369.66" x2="755.56" y2="359.38"/><line class="cls-35" x1="751.5" y1="352" x2="755.56" y2="352"/><line class="cls-35" x1="755.56" y1="352" x2="755.56" y2="359.07"/><line class="cls-35" x1="751.5" y1="351.5" x2="751.5" y2="344.25"/><line class="cls-35" x1="751.5" y1="344.25" x2="755.06" y2="344.25"/><line class="cls-35" x1="755.06" y1="343.75" x2="755.06" y2="333.97"/><line class="cls-35" x1="755.06" y1="333.97" x2="749.06" y2="332.23"/><line class="cls-35" x1="513.42" y1="335" x2="567" y2="339.18"/><line class="cls-35" x1="567.04" y1="339.18" x2="567.5" y2="334.5"/><line class="cls-35" x1="567.54" y1="334.96" x2="536.93" y2="332.14"/><line class="cls-35" x1="536.93" y1="332.14" x2="529.45" y2="320.12"/><line class="cls-35" x1="529.03" y1="320.12" x2="544.53" y2="295.2"/><line class="cls-35" x1="544.7" y1="294.94" x2="552.5" y2="299.4"/><line class="cls-35" x1="552.46" y1="299.37" x2="567.27" y2="299.37"/><line class="cls-35" x1="567.27" y1="300.02" x2="567.04" y2="294.5"/><line class="cls-35" x1="567.04" y1="294.5" x2="577.34" y2="300.3"/><line class="cls-35" x1="577.1" y1="300.31" x2="613.93" y2="304.14"/><line class="cls-35" x1="613.93" y1="304.14" x2="613.93" y2="311.78"/><line class="cls-35" x1="613.43" y1="311.78" x2="623.23" y2="318.06"/><line class="cls-35" x1="622.78" y1="318.06" x2="599.46" y2="364.1"/><line class="cls-35" x1="599.5" y1="363.72" x2="591.05" y2="356.22"/><line class="cls-35" x1="591.38" y1="356.42" x2="587.29" y2="360.66"/><line class="cls-35" x1="587.5" y1="360.66" x2="583.62" y2="360.15"/><line class="cls-35" x1="584.03" y1="359.71" x2="581.18" y2="365.5"/><line class="cls-35" x1="581" y1="365.26" x2="576.5" y2="366.98"/><line class="cls-35" x1="576.71" y1="366.5" x2="571.95" y2="374.16"/><line class="cls-35" x1="572.37" y1="374.29" x2="567.38" y2="374.42"/><line class="cls-35" x1="567.5" y1="374.35" x2="569.98" y2="362.59"/><line class="cls-35" x1="570.47" y1="362.48" x2="513.42" y2="359.92"/><line class="cls-35" x1="513.42" y1="359.92" x2="514.49" y2="335"/><line class="cls-35" x1="566.8" y1="334.45" x2="576.71" y2="336.84"/><line class="cls-35" x1="576.08" y1="336.54" x2="583.57" y2="322.85"/><line class="cls-35" x1="583.57" y1="322.85" x2="584.07" y2="300.31"/><line class="cls-35" x1="39.5" y1="188.54" x2="92.5" y2="188.54"/><line class="cls-35" x1="92.5" y1="187.98" x2="92.5" y2="197.31"/><line class="cls-35" x1="93" y1="197.01" x2="116.77" y2="197.01"/><line class="cls-35" x1="116.77" y1="193.02" x2="116.77" y2="199.01"/><line class="cls-35" x1="116.77" y1="193.02" x2="143.77" y2="196.02"/><line class="cls-35" x1="143.83" y1="196.02" x2="141.37" y2="217.02"/><line class="cls-35" x1="140.87" y1="217.08" x2="150.49" y2="217.08"/><line class="cls-35" x1="150.49" y1="216.58" x2="150.49" y2="233.93"/><line class="cls-35" x1="149.99" y1="233.33" x2="140.87" y2="235.01"/><line class="cls-35" x1="140.78" y1="234.61" x2="140.78" y2="240.65"/><line class="cls-35" x1="140.28" y1="240.15" x2="122.51" y2="240.15"/><line class="cls-35" x1="122.51" y1="239.85" x2="122.51" y2="246.6"/><line class="cls-35" x1="122.51" y1="246.38" x2="130.27" y2="248.59"/><line class="cls-35" x1="130.27" y1="248.05" x2="130.27" y2="268.01"/><line class="cls-35" x1="129.77" y1="267.5" x2="113.42" y2="265.01"/><line class="cls-35" x1="113.35" y1="264.51" x2="113.35" y2="272.53"/><line class="cls-35" x1="113.35" y1="272.53" x2="143.83" y2="275.26"/><line class="cls-35" x1="143.83" y1="275.07" x2="140.28" y2="352.34"/><line class="cls-35" x1="139.78" y1="352.37" x2="76.23" y2="350"/><line class="cls-35" x1="28.5" y1="332" x2="39.5" y2="188.54"/><line class="cls-35" x1="28" y1="332.04" x2="44.5" y2="334.03"/><line class="cls-35" x1="44.56" y1="334.03" x2="44.56" y2="339.59"/><line class="cls-35" x1="45.06" y1="338.96" x2="71.6" y2="341.96"/><line class="cls-35" x1="71.66" y1="342.45" x2="71.66" y2="338.47"/><line class="cls-35" x1="71.21" y1="338.47" x2="76.21" y2="338.47"/><line class="cls-35" x1="76.21" y1="337.97" x2="76.21" y2="350.68"/><line class="cls-35" x1="72.16" y1="333.03" x2="78.44" y2="334.53"/><line class="cls-35" x1="78.55" y1="335.01" x2="78.55" y2="331.16"/><line class="cls-35" x1="79.05" y1="331.54" x2="117.27" y2="333.78"/><line class="cls-35" x1="117.3" y1="333.78" x2="121.6" y2="292.83"/><line class="cls-35" x1="104.89" y1="289" x2="121.6" y2="290"/><line class="cls-35" x1="104.89" y1="267.5" x2="104.89" y2="290.5"/><line class="cls-35" x1="88.5" y1="267.5" x2="105.39" y2="267.5"/><line class="cls-35" x1="88.5" y1="267.5" x2="88.5" y2="284.47"/><line class="cls-35" x1="88" y1="284.17" x2="104.39" y2="288.5"/><line class="cls-35" x1="104.39" y1="288.5" x2="104.39" y2="302.53"/><line class="cls-35" x1="104.89" y1="302.53" x2="84.78" y2="302.53"/><line class="cls-35" x1="84.78" y1="302.03" x2="84.78" y2="320.62"/><line class="cls-35" x1="85.13" y1="320.62" x2="74.18" y2="320.62"/><line class="cls-35" x1="74.18" y1="320.12" x2="72.16" y2="333.78"/><line class="cls-35" x1="49.5" y1="302.53" x2="63.5" y2="302.53"/><line class="cls-35" x1="63.5" y1="302.53" x2="63.5" y2="320.12"/><line class="cls-35" x1="63.5" y1="320.12" x2="49.2" y2="320.12"/><line class="cls-35" x1="49.5" y1="319.62" x2="49.5" y2="302.03"/><line class="cls-35" x1="92" y1="224.95" x2="98.16" y2="224.95"/><line class="cls-35" x1="98.16" y1="224.95" x2="96.19" y2="248.59"/><line class="cls-35" x1="92" y1="224.45" x2="89" y2="248.63"/><line class="cls-35" x1="88.5" y1="248.63" x2="96.59" y2="248.63"/><line class="cls-35" x1="58.33" y1="217.58" x2="84.28" y2="217.58"/><line class="cls-35" x1="84.28" y1="218.08" x2="81.44" y2="245.19"/><line class="cls-35" x1="81.91" y1="245.19" x2="78.05" y2="245.31"/><line class="cls-35" x1="78.04" y1="245.31" x2="76.71" y2="237"/><line class="cls-35" x1="76.71" y1="236.92" x2="56.5" y2="234.17"/><line class="cls-35" x1="56.5" y1="234.17" x2="58.33" y2="217.58"/><line class="cls-35" x1="54.5" y1="252.33" x2="78.05" y2="254.01"/><line class="cls-35" x1="77.75" y1="254.49" x2="77.71" y2="261.52"/><line class="cls-35" x1="77.37" y1="261.55" x2="84.28" y2="261.55"/><line class="cls-35" x1="84.56" y1="261.15" x2="83.97" y2="267.52"/><line class="cls-35" x1="83.78" y1="267" x2="66.6" y2="266.25"/><line class="cls-35" x1="66.6" y1="265.75" x2="66.28" y2="283.69"/><line class="cls-35" x1="66.28" y1="283.69" x2="54.46" y2="282"/><line class="cls-35" x1="54.39" y1="281.51" x2="54.39" y2="251.83"/><rect class="cls-2" x="67.5" y="394" width="30.4" height="42.62"/><rect class="cls-34" x="67.5" y="394" width="30.4" height="42.62"/><line class="cls-34" x1="67.6" y1="429.9" x2="73.28" y2="429.9"/><line class="cls-34" x1="67.6" y1="425" x2="73.28" y2="425"/><line class="cls-34" x1="67.6" y1="420.5" x2="73.28" y2="420.5"/><line class="cls-34" x1="67.6" y1="416.24" x2="73.28" y2="416.24"/><line class="cls-34" x1="67.53" y1="411.98" x2="73.21" y2="411.98"/><line class="cls-34" x1="67.6" y1="407" x2="73.28" y2="407"/><line class="cls-34" x1="67.6" y1="402" x2="73.28" y2="402"/><line class="cls-34" x1="67.45" y1="398" x2="73.28" y2="398"/><line class="cls-34" x1="67.6" y1="435" x2="73.28" y2="435"/><line class="cls-34" x1="91.5" y1="398" x2="98" y2="398"/><line class="cls-34" x1="91.5" y1="401.5" x2="98" y2="401.5"/><line class="cls-34" x1="98" y1="406.5" x2="91.5" y2="406.5"/><line class="cls-34" x1="98" y1="411.48" x2="91.5" y2="411.48"/><line class="cls-34" x1="98" y1="416.24" x2="91.5" y2="416.24"/><line class="cls-34" x1="98" y1="421" x2="91.5" y2="421"/><line class="cls-34" x1="98" y1="425.5" x2="91.5" y2="425.5"/><line class="cls-34" x1="98" y1="429.9" x2="91.5" y2="429.9"/><line class="cls-34" x1="98" y1="434.95" x2="91.5" y2="434.55"/><line class="cls-47" x1="121.6" y1="289.5" x2="121.6" y2="292.78"/><line class="cls-47" x1="78.04" y1="244.69" x2="78.09" y2="254.46"/><line class="cls-34" x1="75.97" y1="436.46" x2="61.5" y2="476.76"/><line class="cls-34" x1="83.97" y1="436.62" x2="70.37" y2="476.93"/><g class="cls-4"><line class="cls-34" x1="0.5" y1="477" x2="61.03" y2="477.09"/></g><line class="cls-34" x1="69.5" y1="476.91" x2="137.5" y2="477.5"/><line class="cls-34" x1="472" y1="506" x2="472" y2="512.5"/><line class="cls-34" x1="437.5" y1="505.5" x2="437.5" y2="513"/><line class="cls-34" x1="472" y1="506.5" x2="817.5" y2="508"/><g class="cls-4"><line class="cls-34" x1="857.5" y1="508.5" x2="881.27" y2="508"/></g><line class="cls-34" x1="835.49" y1="508.32" x2="837.51" y2="508.43"/><line class="cls-34" x1="835.47" y1="479" x2="837.53" y2="479"/><g class="cls-4"><line class="cls-34" x1="856.52" y1="480.5" x2="885.1" y2="479.5"/></g><line class="cls-34" x1="149.5" y1="476.8" x2="401.5" y2="477"/><line class="cls-34" x1="414.49" y1="478.08" x2="469.34" y2="477.79"/><line class="cls-34" x1="496.5" y1="477.5" x2="817.5" y2="479"/><line class="cls-34" x1="427.93" y1="311.78" x2="495.76" y2="314.71"/><line class="cls-34" x1="428.93" y1="304.14" x2="495.75" y2="306.05"/><line class="cls-34" x1="400.44" y1="381.5" x2="408.54" y2="382"/><line class="cls-34" x1="399.5" y1="398" x2="408.6" y2="398"/><path class="cls-34" d="M309.65,407" transform="translate(0.5 6)"/><path class="cls-34" d="M398,392" transform="translate(0.5 6)"/><path class="cls-34" d="M348.35,349" transform="translate(0.5 6)"/><path class="cls-34" d="M309.65,367" transform="translate(0.5 6)"/><line class="cls-34" x1="317.5" y1="401" x2="317.5" y2="413.5"/><line class="cls-34" x1="324.5" y1="401" x2="324.5" y2="413.5"/><line class="cls-34" x1="332.5" y1="401" x2="332.5" y2="413.5"/><line class="cls-34" x1="339.13" y1="401" x2="339.13" y2="413.5"/><line class="cls-34" x1="345.5" y1="401" x2="345.5" y2="413.5"/><line class="cls-34" x1="353.41" y1="402" x2="353.41" y2="414.5"/><line class="cls-34" x1="359.59" y1="402" x2="359.59" y2="414.5"/><line class="cls-34" x1="367.84" y1="403" x2="367.84" y2="414.5"/><line class="cls-34" x1="374.65" y1="403" x2="374.65" y2="414.5"/><line class="cls-34" x1="381.5" y1="403" x2="381.5" y2="414.5"/><line class="cls-34" x1="390" y1="403.4" x2="390" y2="414.9"/><line class="cls-34" x1="355.5" y1="355.25" x2="355.5" y2="368"/><line class="cls-34" x1="364.5" y1="355.25" x2="364.5" y2="368"/><line class="cls-34" x1="372.5" y1="355.25" x2="372.5" y2="368"/><line class="cls-34" x1="380.5" y1="355.49" x2="380.5" y2="368"/><line class="cls-34" x1="388.5" y1="356" x2="388.5" y2="368"/><line class="cls-34" x1="394.5" y1="356" x2="394.5" y2="368"/><line class="cls-34" x1="410.5" y1="352" x2="408.6" y2="383.5"/><line class="cls-34" x1="408.1" y1="398.5" x2="401.5" y2="478.25"/><line class="cls-34" x1="423.5" y1="348" x2="414.21" y2="477.5"/><line class="cls-34" x1="417.66" y1="254.14" x2="412.22" y2="339.84"/><line class="cls-34" x1="431.5" y1="262.11" x2="428.42" y2="304.93"/><path class="cls-34" d="M309.65,406.5" transform="translate(0.5 6)"/><path class="cls-34" d="M400,349.5" transform="translate(0.5 6)"/><path class="cls-34" d="M399,407.87" transform="translate(0.5 6)"/><path class="cls-34" d="M399.94,408.75" transform="translate(0.5 6)"/><line class="cls-34" x1="266.02" y1="322.61" x2="412.17" y2="339.84"/><line class="cls-34" x1="269.52" y1="333.97" x2="410.5" y2="352.39"/><line class="cls-34" x1="233.31" y1="333.97" x2="269.51" y2="333.97"/><line class="cls-34" x1="232.81" y1="322.85" x2="266.71" y2="323.18"/><line class="cls-34" x1="185.5" y1="347.5" x2="210.5" y2="347.5"/><line class="cls-34" x1="210.28" y1="347.96" x2="234.07" y2="333.97"/><line class="cls-34" x1="209.87" y1="334.91" x2="233.56" y2="322.85"/><line class="cls-34" x1="190.5" y1="334.91" x2="210.27" y2="334.91"/><line class="cls-34" x1="185.5" y1="347.5" x2="154.5" y2="428"/><line class="cls-34" x1="154.03" y1="428" x2="149.5" y2="476.3"/><line class="cls-34" x1="176.5" y1="340.34" x2="142.05" y2="421.88"/><line class="cls-34" x1="141.59" y1="421" x2="137.5" y2="476.9"/><line class="cls-34" x1="150.99" y1="187.57" x2="150.99" y2="254.11"/><line class="cls-34" x1="162.97" y1="188.03" x2="162.97" y2="257.49"/><line class="cls-34" x1="162.97" y1="257.33" x2="181.29" y2="320.25"/><line class="cls-34" x1="176.96" y1="340.14" x2="161.99" y2="305.13"/><line class="cls-34" x1="161.99" y1="306.55" x2="151.49" y2="266.63"/><line class="cls-34" x1="151.49" y1="266.63" x2="150.49" y2="252.33"/><line class="cls-34" x1="190.5" y1="334.91" x2="222.53" y2="259.48"/><line class="cls-34" x1="222.53" y1="259.48" x2="236.41" y2="245.81"/><line class="cls-34" x1="236.71" y1="245.95" x2="266.02" y2="242.42"/><line class="cls-34" x1="265.69" y1="242.33" x2="295.5" y2="209.68"/><line class="cls-34" x1="233.27" y1="233.82" x2="262" y2="230.76"/><line class="cls-34" x1="262" y1="230.27" x2="295.5" y2="193.02"/><line class="cls-34" x1="181.45" y1="319.5" x2="210.02" y2="257.49"/><line class="cls-34" x1="210.02" y1="257.49" x2="233.27" y2="234.17"/><line class="cls-34" x1="495.75" y1="314.71" x2="469.84" y2="478"/><line class="cls-34" x1="496.75" y1="478.08" x2="498.49" y2="438.44"/><line class="cls-34" x1="501.34" y1="379" x2="505.39" y2="300.31"/><line class="cls-34" x1="505.89" y1="300.31" x2="512" y2="290.64"/><line class="cls-34" x1="512" y1="290.64" x2="714.36" y2="290.37"/><line class="cls-34" x1="494.61" y1="306.55" x2="505.89" y2="286.66"/><line class="cls-34" x1="505.89" y1="286.66" x2="555.5" y2="283.34"/><line class="cls-34" x1="703.27" y1="279.08" x2="729.18" y2="279.08"/><line class="cls-34" x1="729.18" y1="279.58" x2="785.3" y2="267.53"/><line class="cls-34" x1="785.4" y1="267.53" x2="785.4" y2="257.98"/><line class="cls-34" x1="785.9" y1="257.98" x2="746.5" y2="232.12"/><line class="cls-34" x1="746.23" y1="231.62" x2="693.16" y2="232.12"/><line class="cls-34" x1="693.15" y1="222" x2="743.15" y2="222"/><line class="cls-34" x1="743.15" y1="222" x2="809.99" y2="255.5"/><line class="cls-34" x1="724.92" y1="287.15" x2="810.22" y2="270.62"/><line class="cls-34" x1="723.92" y1="287.15" x2="733.94" y2="303.23"/><line class="cls-34" x1="714.36" y1="290.37" x2="730.48" y2="322.35"/><line class="cls-34" x1="732.71" y1="302.23" x2="772.6" y2="305.1"/><line class="cls-34" x1="772.64" y1="305.6" x2="772.64" y2="331.64"/><line class="cls-34" x1="730.48" y1="321.17" x2="742.93" y2="326.52"/><line class="cls-34" x1="742.93" y1="326.98" x2="751" y2="326.98"/><line class="cls-34" x1="736.7" y1="303.23" x2="736.7" y2="308.96"/><line class="cls-34" x1="742.93" y1="303.66" x2="743.03" y2="308.97"/><line class="cls-34" x1="747.5" y1="303.64" x2="747.5" y2="311.5"/><line class="cls-34" x1="753.53" y1="303.64" x2="753.28" y2="312.39"/><line class="cls-34" x1="760.45" y1="304.14" x2="760.45" y2="312.4"/><line class="cls-34" x1="766.2" y1="312.39" x2="766.2" y2="304.64"/><line class="cls-34" x1="609.06" y1="210.14" x2="609.06" y2="202.32"/><line class="cls-34" x1="623.23" y1="210.14" x2="623.23" y2="202.45"/><line class="cls-34" x1="636.5" y1="210.14" x2="636.5" y2="202.32"/><rect class="cls-6" x="645" y="199.5" width="4" height="3.75"/><rect class="cls-7" x="645" y="199.5" width="4" height="3.75"/><line class="cls-34" x1="655.77" y1="210.14" x2="655.77" y2="201.89"/><line class="cls-34" x1="669.26" y1="209.17" x2="669" y2="202.27"/><line class="cls-34" x1="680.48" y1="210.14" x2="680.48" y2="202.32"/><line class="cls-34" x1="608.56" y1="245.05" x2="608.56" y2="237.29"/><line class="cls-34" x1="621.47" y1="245.05" x2="621.47" y2="236.62"/><line class="cls-34" x1="636" y1="245.06" x2="636" y2="238.29"/><line class="cls-34" x1="655.5" y1="245.08" x2="655.27" y2="237.31"/><line class="cls-34" x1="670" y1="245.05" x2="670" y2="238.75"/><line class="cls-34" x1="682.5" y1="237.26" x2="682.5" y2="245.05"/><g class="cls-4"><line class="cls-48" x1="817.5" y1="4" x2="819.5" y2="142"/><line class="cls-48" x1="800.5" y1="2" x2="805.5" y2="162"/></g><line class="cls-48" x1="817.5" y1="454" x2="817.5" y2="522.95"/><line class="cls-48" x1="835.47" y1="453" x2="835.47" y2="528.83"/><line class="cls-48" x1="837.53" y1="453" x2="837.53" y2="528.83"/><line class="cls-48" x1="855.5" y1="453" x2="857.47" y2="528.83"/><line class="cls-48" x1="806" y1="161" x2="808.46" y2="236.85"/><line class="cls-48" x1="808.96" y1="236.87" x2="813.51" y2="331.64"/><line class="cls-48" x1="812.5" y1="330" x2="817.5" y2="464"/><line class="cls-48" x1="834.97" y1="454" x2="830.52" y2="361.5"/><line class="cls-48" x1="826.5" y1="252" x2="830.02" y2="364.25"/><line class="cls-48" x1="820" y1="142.01" x2="826" y2="255.95"/><g class="cls-4"><line class="cls-48" x1="824.5" y1="3" x2="826.5" y2="116.99"/><line class="cls-48" x1="842.5" y1="1" x2="843.5" y2="134"/></g><line class="cls-48" x1="844" y1="131" x2="848.52" y2="232.62"/><line class="cls-48" x1="849.02" y1="231.7" x2="854.5" y2="399"/><line class="cls-48" x1="855" y1="399.02" x2="855" y2="457.05"/><line class="cls-48" x1="826.5" y1="115" x2="831.48" y2="249.04"/><line class="cls-48" x1="831.98" y1="249.06" x2="837.5" y2="406"/><line class="cls-48" x1="838" y1="406.02" x2="837.03" y2="456.5"/><line class="cls-48" x1="817.5" y1="520" x2="819.5" y2="653.01"/><line class="cls-48" x1="834.97" y1="528.83" x2="836.5" y2="649"/><line class="cls-48" x1="838.03" y1="527" x2="838.03" y2="653.01"/><line class="cls-48" x1="856.49" y1="527" x2="856.49" y2="653.01"/><line class="cls-48" x1="820" y1="651.47" x2="817" y2="688.91"/><line class="cls-48" x1="835.73" y1="646" x2="834.47" y2="688.93"/><line class="cls-48" x1="838.03" y1="650.98" x2="836.23" y2="686.51"/><line class="cls-48" x1="856.49" y1="649.01" x2="853.49" y2="692.7"/><g class="cls-4"><line class="cls-48" x1="796.5" y1="776" x2="807.92" y2="744.44"/><line class="cls-48" x1="823.5" y1="750" x2="814.42" y2="777.74"/><line class="cls-48" x1="825.5" y1="749.84" x2="816.42" y2="778.96"/></g><line class="cls-48" x1="852.99" y1="692.73" x2="848.47" y2="728.31"/><line class="cls-48" x1="847.97" y1="728.38" x2="842.53" y2="753.1"/><g class="cls-4"><line class="cls-48" x1="842.04" y1="753.21" x2="834.49" y2="779.25"/></g><line class="cls-48" x1="836.23" y1="683" x2="835.1" y2="703.01"/><line class="cls-48" x1="835.1" y1="703.04" x2="830.55" y2="723.06"/><line class="cls-48" x1="830.07" y1="723.17" x2="825.98" y2="749.84"/><line class="cls-48" x1="834.6" y1="686.54" x2="832.83" y2="704.05"/><line class="cls-48" x1="832.33" y1="704.1" x2="823.97" y2="749.92"/><line class="cls-48" x1="816.5" y1="686.54" x2="808.39" y2="744.27"/><rect class="cls-16" x="50.5" y="253.67" width="2.89" height="28.67"/><rect class="cls-17" x="50.5" y="253.67" width="2.89" height="28.67"/><rect class="cls-16" x="45.56" y="302.54" width="2.94" height="18.09"/><rect class="cls-17" x="45.56" y="302.54" width="2.94" height="18.09"/><line class="cls-35" x1="644.5" y1="200.89" x2="644.5" y2="203.75"/><polygon class="cls-2" points="396.5 381.5 396.19 397.5 408.6 397.5 409.61 382.53 396.5 381.5"/><polygon class="cls-2" points="76.93 435.5 61.5 478 69.5 477.59 83.97 435.5 76.93 435.5"/><line class="cls-34" x1="427.5" y1="315.83" x2="427.91" y2="311.28"/><line class="cls-35" x1="512.92" y1="438.63" x2="496.26" y2="438.26"/></svg>